<?xml version="1.0" encoding="utf-8" ?>
<svg xmlns="http://www.w3.org/2000/svg" xmlns:xlink="http://www.w3.org/1999/xlink" width="1024" height="1024">
	<path fill="#3D405B" transform="scale(2 2)" d="M0 0L0 512L512 512L512 0L0 0Z"/>
	<path fill="#F4F1DE" transform="scale(2 2)" d="M354.603 137.582L307.557 163.697L267.266 185.369C266.374 185.86 265.407 186.319 264.575 186.899L264.466 91.3958C265.837 91.9132 267.124 92.8054 268.393 93.5332L291.435 106.584C291.237 108.052 291.314 109.588 291.313 111.068L291.264 144.29C291.877 143.694 293.57 142.891 294.386 142.384L320.246 127.992L362.614 104.952C363.022 104.756 363.417 104.645 363.801 104.388L363.8 130.739C363.773 133.507 362.697 132.964 359.919 134.543L354.603 137.582Z"/>
	<path fill="#F4F1DE" transform="scale(2 2)" d="M157.869 137.906L149.954 133.589C149.397 133.285 148.741 133.16 148.281 132.717L148.298 106.648C148.314 104.333 147.684 103.829 149.971 105.076L176.608 119.945L215.12 141.023C216.88 141.997 218.907 142.968 220.525 144.142L220.624 144.215C220.755 143.292 220.657 142.234 220.657 141.298L220.648 109.073C220.649 106.221 220.015 106.721 222.356 105.456L247.154 91.7114L247.526 182.489C247.528 183.834 247.493 185.199 247.702 186.531L157.869 137.906Z"/>
	<path fill="#F4F1DE" transform="scale(2 2)" d="M216.553 195.06L207.156 199.811C202.004 202.386 202.469 202.418 196.791 202.432L148.131 202.462L148.264 176.21L150.142 176.16L191.595 176.148C193.395 176.148 196.275 175.735 197.948 176.412L198.127 176.487C200.278 177.326 202.312 178.576 204.383 179.606L222.322 188.844C223.635 189.551 224.881 190.255 226.326 190.659C222.983 191.588 219.65 193.505 216.553 195.06Z"/>
	<path fill="#F4F1DE" transform="scale(2 2)" d="M335.082 202.431L312.418 202.432C309.578 202.42 309.021 201.995 306.449 200.695L286.131 190.679L310.114 178.303C311.745 177.417 313.28 176.42 315.155 176.175L363.865 176.243L363.832 202.375C363.319 202.548 362.409 202.43 361.856 202.43L335.082 202.431Z"/>
	<path fill="#F4F1DE" transform="scale(2 2)" d="M186.907 254.726L152.959 273.162C151.333 274.021 149.884 274.487 148.446 275.209L148.345 246.949C149.17 246.323 150.77 245.752 151.772 245.218L216.353 210.67L247.669 194.569C247.451 195.775 247.517 197.031 247.516 198.252L247.517 295.42L222.311 281.648C220.402 280.593 220.637 280.983 220.638 278.739L220.644 236.653C219.48 237.485 217.447 238.261 216.084 238.956L186.907 254.726Z"/>
	<path fill="#F4F1DE" transform="scale(2 2)" d="M325.287 254.706L293.166 237.44C292.647 237.178 291.916 237.036 291.492 236.665L291.289 280.721L265.553 295.094C265.203 295.249 264.982 295.432 264.695 295.691L264.499 194.698C267.496 195.928 270.396 197.528 273.268 199.059L362.584 246.34C363.893 246.991 363.828 246.805 363.827 248.284L363.795 275.317C362.147 274.706 360.594 273.839 359.03 273.024L325.287 254.706Z"/>
	<path fill="#E07A5F" transform="scale(2 2)" d="M65 434.622L65 426.653C67.4266 426.653 69.3942 426.489 70.9027 426.161C72.4111 425.833 73.5752 425.243 74.3951 424.391C75.2148 423.538 75.7888 422.308 76.1167 420.701C76.4446 419.095 76.6086 417.045 76.6086 414.553L76.6086 353.067L87.6268 353.067L87.6268 414.75C87.6268 419.341 87.1349 423.095 86.1512 426.014C85.1674 428.932 83.4294 431.097 80.9372 432.507C78.445 433.917 74.9034 434.622 70.3124 434.622L65 434.622ZM100.121 432.753L100.121 353.067L119.895 353.067C124.682 353.067 128.503 353.936 131.356 355.674C134.209 357.412 136.291 359.92 137.603 363.2C138.914 366.479 139.57 370.447 139.57 375.103C139.57 379.301 138.832 382.941 137.357 386.023C135.881 389.106 133.7 391.483 130.815 393.156C127.929 394.828 124.322 395.664 119.993 395.664L111.237 395.664L111.237 432.753L100.121 432.753ZM111.237 387.696L116.353 387.696C119.567 387.696 122.092 387.335 123.928 386.614C125.765 385.892 127.076 384.63 127.863 382.826C128.65 381.022 129.044 378.481 129.044 375.202C129.044 371.398 128.765 368.479 128.208 366.446C127.65 364.413 126.486 363.003 124.715 362.216C122.944 361.429 120.19 361.035 116.451 361.035L111.237 361.035L111.237 387.696ZM157.672 432.753L144.686 353.067L153.933 353.067L162.492 410.323L173.215 353.362L181.086 353.362L191.907 410.618L200.269 353.067L209.32 353.067L196.531 432.753L188.464 432.753L177.347 373.726L166.132 432.753L157.672 432.753ZM261.558 433.638C255.918 433.638 251.541 432.458 248.425 430.096C245.309 427.735 243.145 424.555 241.932 420.554C240.719 416.553 240.112 412.093 240.112 407.174L240.112 379.039C240.112 373.66 240.719 368.971 241.932 364.971C243.145 360.97 245.309 357.871 248.425 355.674C251.541 353.477 255.918 352.378 261.558 352.378C266.543 352.378 270.494 353.296 273.413 355.133C276.332 356.969 278.43 359.593 279.709 363.003C280.988 366.413 281.627 370.512 281.627 375.3L281.627 381.596L271.101 381.596L271.101 375.989C271.101 373.037 270.953 370.43 270.658 368.168C270.363 365.905 269.559 364.151 268.248 362.905C266.937 361.658 264.739 361.035 261.657 361.035C258.509 361.035 256.213 361.708 254.77 363.052C253.327 364.397 252.392 366.299 251.967 368.758C251.541 371.217 251.327 374.087 251.327 377.366L251.327 408.945C251.327 412.946 251.655 416.11 252.311 418.439C252.967 420.767 254.049 422.423 255.557 423.407C257.065 424.391 259.099 424.882 261.657 424.882C264.674 424.882 266.838 424.21 268.15 422.866C269.461 421.521 270.281 419.668 270.609 417.307C270.937 414.946 271.101 412.192 271.101 409.044L271.101 403.141L281.627 403.141L281.627 409.044C281.627 413.897 281.037 418.176 279.857 421.882C278.676 425.588 276.643 428.473 273.757 430.539C270.872 432.605 266.805 433.638 261.558 433.638ZM307.009 433.54C302.811 433.54 299.5 432.687 297.073 430.982C294.646 429.277 292.924 426.85 291.908 423.702C290.892 420.554 290.383 416.848 290.383 412.585L290.383 396.058C290.383 391.795 290.892 388.089 291.908 384.941C292.924 381.793 294.646 379.366 297.073 377.661C299.5 375.956 302.811 375.103 307.009 375.103C311.207 375.103 314.502 375.956 316.896 377.661C319.289 379.366 320.995 381.793 322.011 384.941C323.028 388.089 323.536 391.795 323.536 396.058L323.536 412.585C323.536 416.848 323.028 420.554 322.011 423.702C320.995 426.85 319.289 429.277 316.896 430.982C314.502 432.687 311.207 433.54 307.009 433.54ZM307.009 425.768C309.042 425.768 310.469 425.178 311.288 423.997C312.108 422.817 312.6 421.259 312.764 419.324C312.928 417.389 313.01 415.373 313.01 413.274L313.01 395.468C313.01 393.303 312.928 391.27 312.764 389.368C312.6 387.466 312.108 385.909 311.288 384.695C310.469 383.482 309.042 382.875 307.009 382.875C304.975 382.875 303.533 383.482 302.68 384.695C301.827 385.909 301.32 387.466 301.155 389.368C300.991 391.27 300.909 393.303 300.909 395.468L300.909 413.274C300.909 415.373 300.991 417.389 301.155 419.324C301.32 421.259 301.827 422.817 302.68 423.997C303.533 425.178 304.975 425.768 307.009 425.768ZM346.36 433.54C341.572 433.54 337.998 431.785 335.637 428.276C333.276 424.768 332.095 418.816 332.095 410.421L332.095 399.403C332.095 395.074 332.456 391.057 333.177 387.351C333.898 383.646 335.26 380.678 337.26 378.448C339.26 376.218 342.195 375.103 346.065 375.103C347.966 375.103 349.705 375.53 351.279 376.382C352.853 377.235 354.262 378.284 355.509 379.53L355.509 353.067L366.035 353.067L366.035 432.753L355.509 432.753L355.509 429.113C354.262 430.424 352.902 431.49 351.426 432.31C349.951 433.13 348.261 433.54 346.36 433.54ZM349.016 425.276C350 425.276 351.049 425.096 352.164 424.735C353.279 424.374 354.394 423.833 355.509 423.112L355.509 385.827C354.591 385.171 353.574 384.597 352.459 384.105C351.345 383.613 350.131 383.367 348.819 383.367C346.392 383.367 344.753 384.531 343.9 386.86C343.047 389.188 342.621 391.992 342.621 395.271L342.621 411.306C342.621 413.93 342.769 416.307 343.064 418.439C343.359 420.57 343.966 422.243 344.884 423.456C345.802 424.669 347.179 425.276 349.016 425.276ZM392.4 433.54C387.941 433.54 384.498 432.671 382.071 430.933C379.644 429.195 377.956 426.637 377.004 423.259C376.053 419.882 375.578 415.733 375.578 410.814L375.578 397.829C375.578 392.779 376.07 388.581 377.054 385.236C378.037 381.891 379.759 379.366 382.218 377.661C384.678 375.956 388.072 375.103 392.4 375.103C397.188 375.103 400.713 376.087 402.976 378.055C405.239 380.022 406.731 382.859 407.452 386.564C408.173 390.27 408.534 394.713 408.534 399.895L408.534 404.518L386.104 404.518L386.104 415.93C386.104 418.226 386.318 420.095 386.744 421.538C387.17 422.981 387.858 424.046 388.81 424.735C389.761 425.424 390.991 425.768 392.499 425.768C394.073 425.768 395.27 425.391 396.09 424.636C396.909 423.882 397.467 422.8 397.762 421.39C398.057 419.98 398.205 418.324 398.205 416.422L398.205 412.979L408.436 412.979L408.436 415.143C408.436 420.849 407.223 425.342 404.796 428.621C402.369 431.9 398.237 433.54 392.4 433.54ZM386.104 398.812L398.205 398.812L398.205 393.697C398.205 391.336 398.074 389.352 397.811 387.745C397.549 386.138 397.007 384.925 396.188 384.105C395.369 383.285 394.073 382.875 392.302 382.875C390.597 382.875 389.302 383.269 388.416 384.056C387.531 384.843 386.924 386.171 386.596 388.04C386.269 389.909 386.104 392.483 386.104 395.763L386.104 398.812ZM431.26 433.54C426.603 433.54 422.865 432.08 420.045 429.162C417.224 426.243 415.618 422.39 415.224 417.602L423.98 414.946C424.504 418.554 425.389 421.259 426.636 423.062C427.882 424.866 429.718 425.768 432.145 425.768C434.047 425.768 435.49 425.227 436.474 424.145C437.457 423.062 437.949 421.603 437.949 419.767C437.949 418.127 437.588 416.651 436.867 415.34C436.146 414.028 434.965 412.684 433.326 411.306L423.586 402.944C421.619 401.239 419.963 399.337 418.618 397.238C417.273 395.14 416.601 392.418 416.601 389.073C416.601 386.056 417.208 383.515 418.421 381.449C419.634 379.383 421.34 377.809 423.537 376.727C425.734 375.644 428.308 375.103 431.26 375.103C435.982 375.103 439.589 376.563 442.081 379.481C444.573 382.4 446.016 385.925 446.41 390.057L438.933 392.713C438.67 390.745 438.277 389.024 437.753 387.548C437.228 386.072 436.474 384.925 435.49 384.105C434.506 383.285 433.227 382.875 431.653 382.875C429.948 382.875 428.587 383.449 427.57 384.597C426.554 385.745 426.046 387.105 426.046 388.68C426.046 389.663 426.259 390.631 426.685 391.582C427.111 392.533 427.849 393.467 428.899 394.385L438.933 403.633C440.31 404.879 441.606 406.223 442.819 407.666C444.032 409.109 445.032 410.749 445.819 412.585C446.606 414.422 447 416.553 447 418.98C447 422.193 446.344 424.882 445.032 427.047C443.721 429.211 441.884 430.834 439.523 431.916C437.162 432.999 434.408 433.54 431.26 433.54Z"/>
</svg>
