<?xml version="1.0" encoding="utf-8" ?>
<svg xmlns="http://www.w3.org/2000/svg" xmlns:xlink="http://www.w3.org/1999/xlink" width="80" height="80">
	<path fill="#02086B" transform="scale(0.15625 0.15625)" d="M0 0L0 512L512 512L512 0L0 0Z"/>
	<path fill="#EBF2FA" transform="scale(0.15625 0.15625)" d="M158.667 190.556L148.09 190.545L148.148 171.088L190.975 171.096L191.034 95.9503C191.113 95.48 199.018 88.352 200.084 87.0168L209.752 95.2802C210.587 96.1278 210.221 96.4851 210.208 97.6382L210.194 190.61L158.667 190.556Z"/>
	<path fill="#EBF2FA" transform="scale(0.15625 0.15625)" d="M353.908 190.555L301.951 190.552C301.79 190.315 301.926 178.899 301.927 177.529L301.855 95.9451C302.438 94.807 304.347 93.7143 305.394 92.9472L312.306 87.25C314.268 89.7354 316.982 91.8991 319.345 94.0026C320.974 95.4525 321.064 95.1621 321.062 97.5138L321.103 171.153L363.965 171.123L363.944 190.552L353.908 190.555Z"/>
	<path fill="#EBF2FA" transform="scale(0.15625 0.15625)" d="M256.174 299.898L246.708 292.668C246.575 291.968 246.708 291.041 246.716 290.319L246.736 190.611L218.749 190.571L218.798 101.969C224.784 105.762 232.306 111.817 237.611 116.813C238.357 117.516 237.949 118.67 237.947 119.592L237.985 171.542L246.744 171.512L246.656 96.9382C246.59 94.688 251.066 91.9696 252.913 90.2532L255.902 87.2579C257.682 88.5454 263.859 94.3192 265.115 96.0782L265.231 96.2437C265.481 96.5951 265.492 96.9121 265.51 97.3294L265.547 171.522C266.438 171.64 267.454 171.541 268.357 171.536L274.194 171.478C274.327 171.246 274.285 170.907 274.29 170.639L274.365 117.018C275.118 116.032 276.48 115.16 277.441 114.365L289.15 105.186C290.625 104.052 291.971 102.745 293.498 101.683L293.362 190.558L265.531 190.553L265.615 292.586L256.174 299.898Z"/>
	<path fill="#EBF2FA" transform="scale(0.15625 0.15625)" d="M210.203 226.051L210.187 287.413C210.165 288.283 209.325 288.503 208.683 288.945L194.1 299.47C193.557 299.848 191.612 300.906 191.318 301.209L191.184 218.246L148.015 218.281L148.071 198.664C149.377 198.516 150.773 198.606 152.089 198.604L159.684 198.591L237.89 198.664L237.991 270.905C237.819 271.198 230.154 276.945 229.345 277.495C228.416 276.862 227.58 276.06 226.701 275.354L222.132 271.805C221.04 270.955 218.881 269.914 218.844 268.761L218.871 218.223L210.279 218.209C210.089 218.868 210.218 219.889 210.218 220.587L210.203 226.051Z"/>
	<path fill="#EBF2FA" transform="scale(0.15625 0.15625)" d="M301.893 286.452L302.007 218.255L295.853 218.25C295.134 218.25 294.026 218.108 293.371 218.318L293.401 269.286C293.251 269.639 292.895 269.763 292.59 269.964L282.487 277.506L275.08 271.673C274.709 271.436 274.266 271.092 274.279 270.614L274.421 198.698L292.145 198.591L363.895 198.565C364.032 199.067 363.948 199.737 363.947 200.27L363.935 218.261L321.06 218.262L320.985 301.349C319.559 300.348 318.281 299.763 316.676 298.554L311.917 294.964C308.565 292.496 305.09 290.211 301.882 287.552L301.893 286.452Z"/>
	<path fill="#EBF2FA" transform="scale(0.15625 0.15625)" d="M65 434.622L65 426.653C67.4266 426.653 69.3942 426.489 70.9027 426.161C72.4111 425.833 73.5752 425.243 74.3951 424.391C75.2148 423.538 75.7888 422.308 76.1167 420.701C76.4446 419.095 76.6086 417.045 76.6086 414.553L76.6086 353.067L87.6268 353.067L87.6268 414.75C87.6268 419.341 87.1349 423.095 86.1512 426.014C85.1674 428.932 83.4294 431.097 80.9372 432.507C78.445 433.917 74.9034 434.622 70.3124 434.622L65 434.622ZM100.121 432.753L100.121 353.067L119.895 353.067C124.682 353.067 128.503 353.936 131.356 355.674C134.209 357.412 136.291 359.92 137.603 363.2C138.914 366.479 139.57 370.447 139.57 375.103C139.57 379.301 138.832 382.941 137.357 386.023C135.881 389.106 133.7 391.483 130.815 393.156C127.929 394.828 124.322 395.664 119.993 395.664L111.237 395.664L111.237 432.753L100.121 432.753ZM111.237 387.696L116.353 387.696C119.567 387.696 122.092 387.335 123.928 386.614C125.765 385.892 127.076 384.63 127.863 382.826C128.65 381.022 129.044 378.481 129.044 375.202C129.044 371.398 128.765 368.479 128.208 366.446C127.65 364.413 126.486 363.003 124.715 362.216C122.944 361.429 120.19 361.035 116.451 361.035L111.237 361.035L111.237 387.696ZM157.672 432.753L144.686 353.067L153.933 353.067L162.492 410.323L173.215 353.362L181.086 353.362L191.907 410.618L200.269 353.067L209.32 353.067L196.531 432.753L188.464 432.753L177.347 373.726L166.132 432.753L157.672 432.753ZM261.558 433.638C255.918 433.638 251.541 432.458 248.425 430.096C245.309 427.735 243.145 424.555 241.932 420.554C240.719 416.553 240.112 412.093 240.112 407.174L240.112 379.039C240.112 373.66 240.719 368.971 241.932 364.971C243.145 360.97 245.309 357.871 248.425 355.674C251.541 353.477 255.918 352.378 261.558 352.378C266.543 352.378 270.494 353.296 273.413 355.133C276.332 356.969 278.43 359.593 279.709 363.003C280.988 366.413 281.627 370.512 281.627 375.3L281.627 381.596L271.101 381.596L271.101 375.989C271.101 373.037 270.953 370.43 270.658 368.168C270.363 365.905 269.559 364.151 268.248 362.905C266.937 361.658 264.739 361.035 261.657 361.035C258.509 361.035 256.213 361.708 254.77 363.052C253.327 364.397 252.392 366.299 251.967 368.758C251.541 371.217 251.327 374.087 251.327 377.366L251.327 408.945C251.327 412.946 251.655 416.11 252.311 418.439C252.967 420.767 254.049 422.423 255.557 423.407C257.065 424.391 259.099 424.882 261.657 424.882C264.674 424.882 266.838 424.21 268.15 422.866C269.461 421.521 270.281 419.668 270.609 417.307C270.937 414.946 271.101 412.192 271.101 409.044L271.101 403.141L281.627 403.141L281.627 409.044C281.627 413.897 281.037 418.176 279.857 421.882C278.676 425.588 276.643 428.473 273.757 430.539C270.872 432.605 266.805 433.638 261.558 433.638ZM307.009 433.54C302.811 433.54 299.5 432.687 297.073 430.982C294.646 429.277 292.924 426.85 291.908 423.702C290.892 420.554 290.383 416.848 290.383 412.585L290.383 396.058C290.383 391.795 290.892 388.089 291.908 384.941C292.924 381.793 294.646 379.366 297.073 377.661C299.5 375.956 302.811 375.103 307.009 375.103C311.207 375.103 314.502 375.956 316.896 377.661C319.289 379.366 320.995 381.793 322.011 384.941C323.028 388.089 323.536 391.795 323.536 396.058L323.536 412.585C323.536 416.848 323.028 420.554 322.011 423.702C320.995 426.85 319.289 429.277 316.896 430.982C314.502 432.687 311.207 433.54 307.009 433.54ZM307.009 425.768C309.042 425.768 310.469 425.178 311.288 423.997C312.108 422.817 312.6 421.259 312.764 419.324C312.928 417.389 313.01 415.373 313.01 413.274L313.01 395.468C313.01 393.303 312.928 391.27 312.764 389.368C312.6 387.466 312.108 385.909 311.288 384.695C310.469 383.482 309.042 382.875 307.009 382.875C304.975 382.875 303.533 383.482 302.68 384.695C301.827 385.909 301.32 387.466 301.155 389.368C300.991 391.27 300.909 393.303 300.909 395.468L300.909 413.274C300.909 415.373 300.991 417.389 301.155 419.324C301.32 421.259 301.827 422.817 302.68 423.997C303.533 425.178 304.975 425.768 307.009 425.768ZM346.36 433.54C341.572 433.54 337.998 431.785 335.637 428.276C333.276 424.768 332.095 418.816 332.095 410.421L332.095 399.403C332.095 395.074 332.456 391.057 333.177 387.351C333.898 383.646 335.26 380.678 337.26 378.448C339.26 376.218 342.195 375.103 346.065 375.103C347.966 375.103 349.705 375.53 351.279 376.382C352.853 377.235 354.262 378.284 355.509 379.53L355.509 353.067L366.035 353.067L366.035 432.753L355.509 432.753L355.509 429.113C354.262 430.424 352.902 431.49 351.426 432.31C349.951 433.13 348.261 433.54 346.36 433.54ZM349.016 425.276C350 425.276 351.049 425.096 352.164 424.735C353.279 424.374 354.394 423.833 355.509 423.112L355.509 385.827C354.591 385.171 353.574 384.597 352.459 384.105C351.345 383.613 350.131 383.367 348.819 383.367C346.392 383.367 344.753 384.531 343.9 386.86C343.047 389.188 342.621 391.992 342.621 395.271L342.621 411.306C342.621 413.93 342.769 416.307 343.064 418.439C343.359 420.57 343.966 422.243 344.884 423.456C345.802 424.669 347.179 425.276 349.016 425.276ZM392.4 433.54C387.941 433.54 384.498 432.671 382.071 430.933C379.644 429.195 377.956 426.637 377.004 423.259C376.053 419.882 375.578 415.733 375.578 410.814L375.578 397.829C375.578 392.779 376.07 388.581 377.054 385.236C378.037 381.891 379.759 379.366 382.218 377.661C384.678 375.956 388.072 375.103 392.4 375.103C397.188 375.103 400.713 376.087 402.976 378.055C405.239 380.022 406.731 382.859 407.452 386.564C408.173 390.27 408.534 394.713 408.534 399.895L408.534 404.518L386.104 404.518L386.104 415.93C386.104 418.226 386.318 420.095 386.744 421.538C387.17 422.981 387.858 424.046 388.81 424.735C389.761 425.424 390.991 425.768 392.499 425.768C394.073 425.768 395.27 425.391 396.09 424.636C396.909 423.882 397.467 422.8 397.762 421.39C398.057 419.98 398.205 418.324 398.205 416.422L398.205 412.979L408.436 412.979L408.436 415.143C408.436 420.849 407.223 425.342 404.796 428.621C402.369 431.9 398.237 433.54 392.4 433.54ZM386.104 398.812L398.205 398.812L398.205 393.697C398.205 391.336 398.074 389.352 397.811 387.745C397.549 386.138 397.007 384.925 396.188 384.105C395.369 383.285 394.073 382.875 392.302 382.875C390.597 382.875 389.302 383.269 388.416 384.056C387.531 384.843 386.924 386.171 386.596 388.04C386.269 389.909 386.104 392.483 386.104 395.763L386.104 398.812ZM431.26 433.54C426.603 433.54 422.865 432.08 420.045 429.162C417.224 426.243 415.618 422.39 415.224 417.602L423.98 414.946C424.504 418.554 425.389 421.259 426.636 423.062C427.882 424.866 429.718 425.768 432.145 425.768C434.047 425.768 435.49 425.227 436.474 424.145C437.457 423.062 437.949 421.603 437.949 419.767C437.949 418.127 437.588 416.651 436.867 415.34C436.146 414.028 434.965 412.684 433.326 411.306L423.586 402.944C421.619 401.239 419.963 399.337 418.618 397.238C417.273 395.14 416.601 392.418 416.601 389.073C416.601 386.056 417.208 383.515 418.421 381.449C419.634 379.383 421.34 377.809 423.537 376.727C425.734 375.644 428.308 375.103 431.26 375.103C435.982 375.103 439.589 376.563 442.081 379.481C444.573 382.4 446.016 385.925 446.41 390.057L438.933 392.713C438.67 390.745 438.277 389.024 437.753 387.548C437.228 386.072 436.474 384.925 435.49 384.105C434.506 383.285 433.227 382.875 431.653 382.875C429.948 382.875 428.587 383.449 427.57 384.597C426.554 385.745 426.046 387.105 426.046 388.68C426.046 389.663 426.259 390.631 426.685 391.582C427.111 392.533 427.849 393.467 428.899 394.385L438.933 403.633C440.31 404.879 441.606 406.223 442.819 407.666C444.032 409.109 445.032 410.749 445.819 412.585C446.606 414.422 447 416.553 447 418.98C447 422.193 446.344 424.882 445.032 427.047C443.721 429.211 441.884 430.834 439.523 431.916C437.162 432.999 434.408 433.54 431.26 433.54Z"/>
</svg>
